<?xml version="1.0" standalone="no"?><!DOCTYPE svg PUBLIC "-//W3C//DTD SVG 1.1//EN" "http://www.w3.org/Graphics/SVG/1.1/DTD/svg11.dtd"><svg t="1590558248188" class="icon" viewBox="0 0 1024 1024" version="1.1" xmlns="http://www.w3.org/2000/svg" p-id="2196" xmlns:xlink="http://www.w3.org/1999/xlink" width="200" height="200"><defs><style type="text/css"></style></defs><path d="M813.810526 883.873684H150.905263C75.452632 856.926316 26.947368 786.863158 26.947368 706.021053c0-75.452632 43.115789-140.126316 113.178948-172.463158 0-16.168421-5.389474-32.336842-5.389474-43.11579 0-194.021053 156.294737-350.315789 350.31579-350.315789 167.073684 0 307.2 118.568421 339.536842 280.252631 102.4 32.336842 172.463158 123.957895 172.463158 231.747369s-75.452632 204.8-183.242106 231.747368z m-646.736842-53.894737h635.957895c80.842105-21.557895 140.126316-97.010526 140.126316-183.242105 0-86.231579-59.284211-161.684211-145.51579-183.242105l-16.168421-5.389474v-16.168421C754.526316 296.421053 630.568421 194.021053 485.052632 194.021053 323.368421 194.021053 188.631579 323.368421 188.631579 490.442105c0 16.168421 0 37.726316 5.389474 59.284211l5.389473 21.557895-21.557894 5.389473c-59.284211 16.168421-97.010526 70.063158-97.010527 129.347369 0 53.894737 32.336842 102.4 86.231579 123.957894z" fill="#444A5C" p-id="2197"></path><path d="M538.947368 485.052632v269.473684H485.052632V485.052632H377.263158V431.157895h269.473684v53.894737h-107.789474z" fill="#444A5C" p-id="2198"></path></svg>