<svg xmlns="http://www.w3.org/2000/svg" width="26.493" height="26.493" viewBox="0 0 26.493 26.493">
  <path id="history" d="M34.493,21.221A13.247,13.247,0,0,1,12.933,31.56a1.281,1.281,0,0,1-.1-1.9l.6-.6a1.284,1.284,0,0,1,1.7-.106,9.829,9.829,0,1,0-.627-14.865L17.224,16.8a.855.855,0,0,1-.6,1.459H8.855A.855.855,0,0,1,8,17.4V9.636a.855.855,0,0,1,1.459-.6L12.1,11.669a13.246,13.246,0,0,1,22.4,9.553ZM24.83,25.43l.525-.675a1.282,1.282,0,0,0-.225-1.8l-2.174-1.691V15.691a1.282,1.282,0,0,0-1.282-1.282h-.855a1.282,1.282,0,0,0-1.282,1.282v7.246l3.494,2.717A1.282,1.282,0,0,0,24.83,25.43Z" transform="translate(-8 -8)" fill="#ced0d1"/>
</svg>
